<?xml version="1.0" encoding="UTF-8"?>
<svg id="Layer_1" data-name="Layer 1" xmlns="http://www.w3.org/2000/svg" viewBox="0 0 1920 1080">
  <defs>
    <style>
      .cls-1 {
        opacity: .2;
      }

      .cls-1, .cls-2 {
        fill: #7120e9;
      }
    </style>
  </defs>
  <g>
    <path class="cls-2" d="M378.1899521329,473.1514862149c-1.9805888561,0-4.0041405942,0-5.9836553784.0440369539-2.5509211136.044036954-5.1029162992.044036954-7.6108745309.1321108619,2.5079582317-.3520271137,5.0148423913-.4841379756,7.6108745309-.4841379756,2.023551738,0,4.0030665222.0880739079,5.9836553784.3079901598Z"/>
    <path class="cls-2" d="M372.2062967545,429.6854015479c-2.3758473698,0-4.7076577856.0880739079-7.0383941294.2639532057,2.3307363438-.043768436,4.6625467596-.0878053899,7.0383941294-.1318423439,1.3200345468,0,2.5960321396-.044036954,3.9601036403-.044036954-1.3200345468-.044036954-2.6400690935-.0880739079-3.9601036403-.0880739079Z"/>
    <path class="cls-2" d="M474.581473992,435.1846504327c-33.7000845723-4.0473719942-66.4764671834-5.5870542748-97.579445544-5.4111749769h-.8356280532c-1.3640715007,0-2.6400690935.044036954-3.9601036403.044036954-2.3758473698.0440369539-4.7076577856.0880739079-7.0383941294.1318423439h-.7926651713c-33.2597150326.7040542273-64.4507673012,3.3435862848-92.8266767324,6.9511257754-95.0714873124,12.1864214545-158.2913680468,35.6352938844-158.2913680468,35.6352938844v.3077216417l32.7763826111,32.7315401032c29.3436483463-8.3146602402,76.8133365715-19.7092220774,135.5457442902-26.528236991-10.9104238617,16.8497737681-17.2463748718,36.9547913951-17.2463748718,58.5119544308,0,59.5677672538,48.3053162784,107.8733520503,107.8733520503,107.8733520503,59.5669616998,0,107.8744261223-48.3055847965,107.8744261223-107.8733520503,0-22.3927910889-6.8203575036-43.2021314613-18.5212983925-60.447700779,44.4773235,4.4874730158,90.8020509223,13.1981973236,137.4812221203,27.8042345838l32.0696432037-32.0717913478v-.3077216417c-52.8808632022-19.6654536415-105.8046892862-31.3239686845-156.5288158164-37.3511239808ZM372.2062967545,602.2740111411c-35.6795993564,0-64.714989025-29.0361952227-64.714989025-64.715257543,0-33.0835672168,24.9882861924-60.4917377329,57.1041144941-64.2311195674,2.5079582317-.3520271137,5.0148423913-.4841379756,7.6108745309-.4841379756,2.023551738,0,4.0030665222.0880739079,5.9836553784.3079901598,15.4419338315,1.4078399366,29.3436483463,8.2708918042,39.7707397865,18.6534092544l-45.7984321189,45.7538581289h64.760100051c0,35.6790623203-29.0364637407,64.715257543-64.716063097,64.715257543Z"/>
    <path class="cls-1" d="M436.9208605128,537.5521155904c0,22.304985699-11.3507934013,42.0142077764-28.5520572471,53.6727228194-10.3390175323,6.9508572574-22.7885866386,11.0425347236-36.2069687319,11.0425347236-6.6871725697,0-13.1541603696-1.012044387-19.2258896559-2.9037537812-3.0353276071-.9677389151-5.9825813063-2.111625646-8.7987982157-3.4754286287-1.8474039223-.9239704791-3.6948078445-1.8917093942-5.4552119309-2.9477907352-4.4434360618-2.7276059654-8.5345764919-5.9390813884-12.2293843364-9.6346947869-1.4521454086-1.4516083726-2.8602538633-2.9915591712-4.1802884101-4.5752784057,0,0-.0440369539,0-.0440369539-.044036954-1.9795147841-2.3755788518-3.7828817524-4.8832685654-5.3671380229-7.5668375768,0,0-.044036954,0-.044036954-.044036954-1.0558128231-1.7598670503-2.0235517381-3.6075394906-2.9472536991-5.4552119308,0,0-.044036954,0-.044036954-.044036954-.8796650072-1.8917093942-1.6712561064-3.8274557424-2.4198843237-5.7632020906l-.0440369539-.044036954c-2.5068841596-6.9070888215-3.9149926143-14.3861210084-3.9149926143-22.2169117911,0-17.8615496371,7.2585788992-34.0513061318,19.005704886-45.7538581288,11.746051915-11.7022834789,27.8915029377-18.9613994141,45.7092841389-18.9613994141,17.8618181552,0,34.0513061319,7.2591159351,45.7973580469,18.9613994141l-45.7973580469,45.7538581288h64.7590259789Z"/>
  </g>
  <path class="cls-2" d="M820.4690073882,581.9437642582l6.6533783909,23.7638091537,6.337083576-23.7638091537,55.7624707731-151.4472459423h42.7730258313l-81.1097880519,215.4486372818h-50.0600108774l-81.427099892-215.4486372818h45.3074524516l55.7634877983,151.4472459423Z"/>
  <path class="cls-2" d="M979.3379327282,465.8649678339l38.286187666-35.3809094391h-42.5145367605v215.4488179527h42.7733221186v-180.0679085136h-38.5449730241Z"/>
  <path class="cls-2" d="M1233.3329770076,582.5783879384c0,43.4066324864-35.4850237602,68.1183090599-84.2778213273,68.1183090599-49.1090923823,0-83.9615265124-22.8118736333-92.1994300537-69.7028342101h44.6738457966c5.3861650808,22.8118736333,21.8619721632,35.4860407853,47.8428960971,35.4860407853,26.6135135638,0,40.2375821858-11.0896420017,40.2375821858-28.5153505542,0-54.8135863282-128.6353723089-13.624068622-128.6353723089-99.4874321248,0-34.2167934249,28.1990557392-62.732143979,79.2089680867-62.732143979,43.4066324864,0,80.1598865818,20.9100366429,87.1295597878,69.3875564203h-45.3074524517c-5.0688532407-24.0811209938-19.9601351729-35.1687289452-43.0893206463-35.1687289452-21.5446603232,0-34.5351222901,9.8203946413-34.5351222901,24.7116765735,0,51.6445360277,128.951667124,9.8224286916,128.951667124,97.9029069745Z"/>
  <path class="cls-2" d="M1365.7824899159,650.6966969983c-55.4461759581,0-89.6650034332-32.9495801147-89.6650034332-86.8112309226v-133.3889477598h42.7730258313v133.3889477598c0,32.6343023248,17.4257085525,52.2771256576,46.8919776019,52.2771256576,29.7825638644,0,47.2082724169-19.6428233328,47.2082724169-52.2771256576v-133.3889477598h42.4557139912v133.3889477598c0,53.8616508079-34.21781045,86.8112309226-89.6639864081,86.8112309226Z"/>
  <path class="cls-2" d="M1498.5750312603,430.4965183159h56.7133892683l54.495257463,139.0903906304,7.9205917011,26.9328594542,8.2379035412-26.9328594542,54.178962648-139.0903906304h55.1288641181v215.4486372818h-42.4557139912l1.5845251503-167.2884293445-15.8422004274,49.7426990372-46.2573539218,117.5457303073h-30.7334823596l-46.5746657618-118.1803539875-15.5248885873-48.4754857271,1.9008199653,166.6558397146h-42.7720088062v-215.4486372818Z"/>
</svg>